<svg xmlns="http://www.w3.org/2000/svg" width="18" height="18" viewBox="0 0 18 18">
  <g id="envelope" transform="translate(0 -57.75)">
    <g id="Group_10" data-name="Group 10" transform="translate(0 57.75)">
      <path id="Path_13" data-name="Path 13" d="M15.8,57.75H2.2c-1.214,0-2.2,1.3-2.2,2.892V72.858c0,1.6.987,2.892,2.2,2.892H15.8c1.214,0,2.2-1.3,2.2-2.892V60.647C18,59.052,17.017,57.75,15.8,57.75ZM17,72.858a1.424,1.424,0,0,1-1.2,1.571H2.2a1.424,1.424,0,0,1-1.2-1.571V60.647a1.424,1.424,0,0,1,1.2-1.571H15.8a1.424,1.424,0,0,1,1.2,1.571v12.21Z" transform="translate(0 -57.75)"/>
      <path id="Path_14" data-name="Path 14" d="M65.028,115.247l4.4-5.188a.818.818,0,0,0,.037-.935.426.426,0,0,0-.711-.049l-6.071,7.16-1.184-1.39a.028.028,0,0,1-.007-.015.851.851,0,0,0-.082-.093l-4.819-5.667a.424.424,0,0,0-.711.054.812.812,0,0,0,.041.935l4.454,5.232-4.436,5.457a.818.818,0,0,0-.022.935.467.467,0,0,0,.369.21.446.446,0,0,0,.343-.176l4.5-5.535,1.222,1.434a.417.417,0,0,0,.67,0l1.255-1.478,4.477,5.589a.444.444,0,0,0,.346.181.454.454,0,0,0,.365-.206.818.818,0,0,0-.019-.935Z" transform="translate(-53.676 -106.399)"/>
    </g>
  </g>
</svg>
