<svg xmlns="http://www.w3.org/2000/svg" width="27.918" height="31.764" viewBox="0 0 27.918 31.764">
  <g id="like" transform="translate(-31)">
    <g id="Group_12" data-name="Group 12" transform="translate(31 5.646)">
      <g id="Group_11" data-name="Group 11" transform="translate(0)">
        <path id="Path_17" data-name="Path 17" d="M58.2,105.021a2.79,2.79,0,0,0-2.079-4.653H50.707a18.044,18.044,0,0,0,.766-4.716v-.93A3.727,3.727,0,0,0,47.751,91H46.82a.93.93,0,0,0-.9.7l-.507,2.028c-.71,2.84-2.965,5.974-5.3,6.543a2.8,2.8,0,0,0-2.6-1.769H31.931a.931.931,0,0,0-.931.931v16.751a.931.931,0,0,0,.931.931h5.584a2.8,2.8,0,0,0,2.52-1.591l3.2,1.066a10.214,10.214,0,0,0,3.237.525h7.8a2.793,2.793,0,0,0,2.6-3.82,2.79,2.79,0,0,0,1.344-4.555,2.786,2.786,0,0,0,0-3.722Zm-19.76,9.306a.932.932,0,0,1-.931.931H32.861V100.368h4.653a.932.932,0,0,1,.931.931Zm15.82-8.375h1.861a.931.931,0,1,1,0,1.861H54.265a.931.931,0,1,0,0,1.861h1.861a.931.931,0,1,1,0,1.861H54.265a.931.931,0,1,0,0,1.861.931.931,0,0,1,0,1.861h-7.8a8.357,8.357,0,0,1-2.649-.43l-3.514-1.171V102.141a7.5,7.5,0,0,0,4.178-2.715,13.579,13.579,0,0,0,2.732-5.242l.331-1.323h.2a1.863,1.863,0,0,1,1.861,1.861v.93a14.726,14.726,0,0,1-.891,4.716h-1.9a.931.931,0,1,0,0,1.861h9.306a.931.931,0,1,1,0,1.861H54.265a.931.931,0,1,0,0,1.861Z" transform="translate(-31 -91)"/>
      </g>
    </g>
    <g id="Group_14" data-name="Group 14" transform="translate(34.722 26.181)">
      <g id="Group_13" data-name="Group 13">
        <ellipse id="Ellipse_9" data-name="Ellipse 9" cx="0.931" cy="0.931" rx="0.931" ry="0.931"/>
      </g>
    </g>
    <g id="Group_16" data-name="Group 16" transform="translate(47.751)">
      <g id="Group_15" data-name="Group 15">
        <path id="Path_18" data-name="Path 18" d="M301.931,0A.931.931,0,0,0,301,.931V2.854a.931.931,0,1,0,1.861,0V.931A.931.931,0,0,0,301.931,0Z" transform="translate(-301 0)"/>
      </g>
    </g>
    <g id="Group_18" data-name="Group 18" transform="translate(41.828 2.515)">
      <g id="Group_17" data-name="Group 17">
        <path id="Path_19" data-name="Path 19" d="M208.445,42.13l-1.316-1.316a.931.931,0,1,0-1.316,1.316l1.316,1.316a.931.931,0,0,0,1.316-1.316Z" transform="translate(-205.54 -40.542)"/>
      </g>
    </g>
    <g id="Group_20" data-name="Group 20" transform="translate(52.357 2.515)">
      <g id="Group_19" data-name="Group 19" transform="translate(0)">
        <path id="Path_20" data-name="Path 20" d="M378.151,40.814a.931.931,0,0,0-1.316,0l-1.316,1.316a.931.931,0,0,0,1.316,1.316l1.316-1.316A.931.931,0,0,0,378.151,40.814Z" transform="translate(-375.247 -40.542)"/>
      </g>
    </g>
  </g>
</svg>
