<svg xmlns="http://www.w3.org/2000/svg" width="18" height="18" viewBox="0 0 18 18">
  <path id="suitcase" d="M17.1,3H13.2V1.667A1.592,1.592,0,0,0,11.7,0H6.3A1.592,1.592,0,0,0,4.8,1.667V3H.9A.954.954,0,0,0,0,4v7.42a1,1,0,0,0,.6.941V17a.954.954,0,0,0,.9,1h15a.954.954,0,0,0,.9-1V12.361a1,1,0,0,0,.6-.941V4a.954.954,0,0,0-.9-1ZM5.4,1.667a.954.954,0,0,1,.9-1h5.4a.954.954,0,0,1,.9,1V3H12V1.667a.318.318,0,0,0-.3-.333H6.3a.318.318,0,0,0-.3.333V3H5.4ZM11.4,3H6.6V2h4.8Zm5.4,14a.318.318,0,0,1-.3.333H1.5A.318.318,0,0,1,1.2,17V12.476l6.6,1.011v.846a.954.954,0,0,0,.9,1h.6a.954.954,0,0,0,.9-1v-.846l6.6-1.011ZM9.6,14.333a.318.318,0,0,1-.3.333H8.7a.318.318,0,0,1-.3-.333v-2A.318.318,0,0,1,8.7,12h.6a.318.318,0,0,1,.3.333Zm7.8-2.913a.324.324,0,0,1-.258.33l-.083.013L10.2,12.814v-.481a.954.954,0,0,0-.9-1H8.7a.954.954,0,0,0-.9,1v.481L.858,11.75A.324.324,0,0,1,.6,11.42V4a.318.318,0,0,1,.3-.333H17.1A.318.318,0,0,1,17.4,4Zm0,0"/>
</svg>
