<svg xmlns="http://www.w3.org/2000/svg" width="18.877" height="18.877" viewBox="0 0 18.877 18.877">
  <g id="web" transform="translate(-2 -2)">
    <path id="Path_5" data-name="Path 5" d="M20.562,2H2.315A.315.315,0,0,0,2,2.315V20.562a.315.315,0,0,0,.315.315H20.562a.315.315,0,0,0,.315-.315V2.315A.315.315,0,0,0,20.562,2ZM2.629,2.629H20.247V3.888H2.629Zm0,17.618V4.517H20.247V20.247Z"/>
    <path id="Path_6" data-name="Path 6" d="M5.538,5.1a.329.329,0,0,0-.447,0,.363.363,0,0,0-.066.1A.315.315,0,0,0,5,5.323a.264.264,0,0,0,.025.12.368.368,0,0,0,.066.1.311.311,0,0,0,.343.066.284.284,0,0,0,.17-.17.3.3,0,0,0,0-.239A.363.363,0,0,0,5.538,5.1Z" transform="translate(-2.056 -2.065)"/>
    <path id="Path_7" data-name="Path 7" d="M8.6,5.2a.259.259,0,0,0-.028-.057l-.038-.047a.315.315,0,0,0-.343-.066.3.3,0,0,0-.2.289.311.311,0,0,0,.434.289.368.368,0,0,0,.1-.066.313.313,0,0,0,.091-.223.424.424,0,0,0-.007-.063A.189.189,0,0,0,8.6,5.2Z" transform="translate(-4.112 -2.057)"/>
    <path id="Path_8" data-name="Path 8" d="M11.091,5.1A.329.329,0,0,0,11,5.323a.315.315,0,0,0,.025.12.368.368,0,0,0,.066.1.319.319,0,0,0,.447,0,.368.368,0,0,0,.066-.1.315.315,0,0,0,.025-.12.324.324,0,0,0-.091-.223.329.329,0,0,0-.447,0Z" transform="translate(-6.168 -2.065)"/>
    <rect id="Rectangle_10" data-name="Rectangle 10" width="3.146" height="0.629" transform="translate(15.214 5.146)"/>
    <rect id="Rectangle_11" data-name="Rectangle 11" width="4.405" height="0.629" transform="translate(15.214 6.405)"/>
    <rect id="Rectangle_12" data-name="Rectangle 12" width="4.405" height="0.629" transform="translate(15.214 7.663)"/>
    <rect id="Rectangle_13" data-name="Rectangle 13" width="3.146" height="0.629" transform="translate(15.214 9.551)"/>
    <rect id="Rectangle_14" data-name="Rectangle 14" width="4.405" height="0.629" transform="translate(15.214 10.809)"/>
    <rect id="Rectangle_15" data-name="Rectangle 15" width="4.405" height="0.629" transform="translate(15.214 12.068)"/>
    <rect id="Rectangle_16" data-name="Rectangle 16" width="4.405" height="0.629" transform="translate(15.214 13.326)"/>
    <rect id="Rectangle_17" data-name="Rectangle 17" width="3.146" height="0.629" transform="translate(15.214 15.214)"/>
    <rect id="Rectangle_18" data-name="Rectangle 18" width="4.405" height="0.629" transform="translate(15.214 16.472)"/>
    <rect id="Rectangle_19" data-name="Rectangle 19" width="4.405" height="0.629" transform="translate(15.214 17.731)"/>
    <rect id="Rectangle_20" data-name="Rectangle 20" width="4.405" height="0.629" transform="translate(15.214 18.989)"/>
    <path id="Path_9" data-name="Path 9" d="M16.382,12H6.315A.315.315,0,0,0,6,12.315v3.146a.315.315,0,0,0,.315.315H16.382a.315.315,0,0,0,.315-.315V12.315A.315.315,0,0,0,16.382,12Zm-.315,3.146H6.629V12.629h9.438Z" transform="translate(-2.742 -6.854)"/>
    <rect id="Rectangle_21" data-name="Rectangle 21" width="5.034" height="0.629" transform="translate(3.258 9.551)"/>
    <rect id="Rectangle_22" data-name="Rectangle 22" width="10.697" height="0.629" transform="translate(3.258 10.809)"/>
    <rect id="Rectangle_23" data-name="Rectangle 23" width="8.18" height="0.629" transform="translate(3.258 12.068)"/>
    <path id="Path_10" data-name="Path 10" d="M8.832,40H6.315A.315.315,0,0,0,6,40.315v2.517a.315.315,0,0,0,.315.315H8.832a.315.315,0,0,0,.315-.315V40.315A.315.315,0,0,0,8.832,40Zm-.315,2.517H6.629V40.629H8.517Z" transform="translate(-2.742 -26.045)"/>
    <rect id="Rectangle_24" data-name="Rectangle 24" width="3.146" height="0.629" transform="translate(3.258 17.731)"/>
    <path id="Path_11" data-name="Path 11" d="M20.832,40H18.315a.315.315,0,0,0-.315.315v2.517a.315.315,0,0,0,.315.315h2.517a.315.315,0,0,0,.315-.315V40.315A.315.315,0,0,0,20.832,40Zm-.315,2.517H18.629V40.629h1.888Z" transform="translate(-10.966 -26.045)"/>
    <path id="Path_12" data-name="Path 12" d="M32.832,40H30.315a.315.315,0,0,0-.315.315v2.517a.315.315,0,0,0,.315.315h2.517a.315.315,0,0,0,.315-.315V40.315A.315.315,0,0,0,32.832,40Zm-.315,2.517H30.629V40.629h1.888Z" transform="translate(-19.191 -26.045)"/>
    <rect id="Rectangle_25" data-name="Rectangle 25" width="3.146" height="0.629" transform="translate(7.034 17.731)"/>
    <rect id="Rectangle_26" data-name="Rectangle 26" width="3.146" height="0.629" transform="translate(10.809 17.731)"/>
    <rect id="Rectangle_27" data-name="Rectangle 27" width="3.146" height="0.629" transform="translate(3.258 18.989)"/>
    <rect id="Rectangle_28" data-name="Rectangle 28" width="3.146" height="0.629" transform="translate(7.034 18.989)"/>
    <rect id="Rectangle_29" data-name="Rectangle 29" width="3.146" height="0.629" transform="translate(10.809 18.989)"/>
  </g>
</svg>
